<?xml version="1.0" encoding="UTF-8"?>
<svg width="125px" height="125px" viewBox="0 0 125 125" version="1.1" xmlns="http://www.w3.org/2000/svg" xmlns:xlink="http://www.w3.org/1999/xlink">
    <!-- Generator: Sketch 54.1 (76490) - https://sketchapp.com -->
    <title>icon-big-down-black</title>
    <desc>Created with Sketch.</desc>
    <g id="Page-1" stroke="none" stroke-width="1" fill="none" fill-rule="evenodd">
        <g id="Artboard" transform="translate(-306.000000, -174.000000)" fill="#000000">
            <path d="M431,236.5 C431,271.017797 403.017797,299 368.5,299 C333.982203,299 306,271.017797 306,236.5 C306,201.982203 333.982203,174 368.5,174 C403.017797,174 431,201.982203 431,236.5 Z M333,241.022998 C333.556043,241.007694 334.135129,241 334.739272,241 L340.260728,241 C346.896419,241 350.509198,241.928256 353.768457,243.671327 C357.027716,245.414398 359.585602,247.972284 361.328673,251.231543 C363.071744,254.490802 364,258.103581 364,264.739272 L364,270.260728 C364,270.864871 363.992306,271.443957 363.977002,272 L373.022998,272 C373.007694,271.443957 373,270.864871 373,270.260728 L373,264.739272 C373,258.103581 373.928256,254.490802 375.671327,251.231543 C377.414398,247.972284 379.972284,245.414398 383.231543,243.671327 C386.490802,241.928256 390.103581,241 396.739272,241 L402.260728,241 C402.864871,241 403.443957,241.007694 404,241.022998 L404,232 L373,232 L373,201 L364,201 L364,232 L333,232 L333,241.022998 Z" id="icon-big-down-black"></path>
        </g>
    </g>
</svg>