<?xml version="1.0" encoding="UTF-8"?>
<svg width="125px" height="125px" viewBox="0 0 125 125" version="1.1" xmlns="http://www.w3.org/2000/svg" xmlns:xlink="http://www.w3.org/1999/xlink">
    <!-- Generator: Sketch 54.1 (76490) - https://sketchapp.com -->
    <title>icon-big-down-orange</title>
    <desc>Created with Sketch.</desc>
    <g id="Page-1" stroke="none" stroke-width="1" fill="none" fill-rule="evenodd">
        <g id="Artboard" transform="translate(-306.000000, -21.000000)" fill="#FD4300">
            <path d="M431,83.5 C431,118.017797 403.017797,146 368.5,146 C333.982203,146 306,118.017797 306,83.5 C306,48.9822031 333.982203,21 368.5,21 C403.017797,21 431,48.9822031 431,83.5 Z M333,88.0229976 C333.556043,88.0076944 334.135129,88 334.739272,88 L340.260728,88 C346.896419,88 350.509198,88.9282561 353.768457,90.671327 C357.027716,92.414398 359.585602,94.9722837 361.328673,98.231543 C363.071744,101.490802 364,105.103581 364,111.739272 L364,117.260728 C364,117.864871 363.992306,118.443957 363.977002,119 L373.022998,119 C373.007694,118.443957 373,117.864871 373,117.260728 L373,111.739272 C373,105.103581 373.928256,101.490802 375.671327,98.231543 C377.414398,94.9722837 379.972284,92.414398 383.231543,90.671327 C386.490802,88.9282561 390.103581,88 396.739272,88 L402.260728,88 C402.864871,88 403.443957,88.0076944 404,88.0229976 L404,79 L373,79 L373,48 L364,48 L364,79 L333,79 L333,88.0229976 Z" id="icon-big-down-orange"></path>
        </g>
    </g>
</svg>