<?xml version="1.0" encoding="UTF-8"?>
<svg width="28px" height="28px" viewBox="0 0 28 28" version="1.1" xmlns="http://www.w3.org/2000/svg" xmlns:xlink="http://www.w3.org/1999/xlink">
    <!-- Generator: Sketch 54.1 (76490) - https://sketchapp.com -->
    <title>icon-small-close-orange</title>
    <desc>Created with Sketch.</desc>
    <g id="Page-1" stroke="none" stroke-width="1" fill="none" fill-rule="evenodd">
        <g id="Artboard" transform="translate(-42.000000, -43.000000)" fill="#FD4300">
            <path d="M65.8994949,66.8994949 C60.4321549,72.366835 51.5678451,72.366835 46.1005051,66.8994949 C40.633165,61.4321549 40.633165,52.5678451 46.1005051,47.1005051 C51.5678451,41.633165 60.4321549,41.633165 65.8994949,47.1005051 C71.366835,52.5678451 71.366835,61.4321549 65.8994949,66.8994949 Z M48.9289322,51.3431458 L50.9599052,53.3741188 C52.2207031,54.6349167 52.5466237,55.2233877 52.7610451,55.930824 C52.9754665,56.6382603 52.9754665,57.3617397 52.7610451,58.069176 C52.5466237,58.7766123 52.2207031,59.3650833 50.9599052,60.6258812 L48.9289322,62.6568542 L50.3431458,64.0710678 L52.3741188,62.0400948 C53.6349167,60.7792969 54.2233877,60.4533763 54.930824,60.2389549 C55.6382603,60.0245335 56.3617397,60.0245335 57.069176,60.2389549 C57.7766123,60.4533763 58.3650833,60.7792969 59.6258812,62.0400948 L61.6568542,64.0710678 L63.0710678,62.6568542 L61.0400948,60.6258812 C59.7792969,59.3650833 59.4533763,58.7766123 59.2389549,58.069176 C59.0245335,57.3617397 59.0245335,56.6382603 59.2389549,55.930824 C59.4533763,55.2233877 59.7792969,54.6349167 61.0400948,53.3741188 L63.0710678,51.3431458 L61.6568542,49.9289322 L59.6258812,51.9599052 C58.3650833,53.2207031 57.7766123,53.5466237 57.069176,53.7610451 C56.3617397,53.9754665 55.6382603,53.9754665 54.930824,53.7610451 C54.2233877,53.5466237 53.6349167,53.2207031 52.3741188,51.9599052 L50.3431458,49.9289322 L48.9289322,51.3431458 Z" id="icon-small-close-orange"></path>
        </g>
    </g>
</svg>