<?xml version="1.0" encoding="UTF-8"?>
<svg width="28px" height="28px" viewBox="0 0 28 28" version="1.1" xmlns="http://www.w3.org/2000/svg" xmlns:xlink="http://www.w3.org/1999/xlink">
    <!-- Generator: Sketch 54.1 (76490) - https://sketchapp.com -->
    <title>icon-small-fw-orange</title>
    <desc>Created with Sketch.</desc>
    <g id="Page-1" stroke="none" stroke-width="1" fill="none" fill-rule="evenodd">
        <g id="Artboard" transform="translate(-173.000000, -9.000000)" fill="#FFFFFF">
            <path d="M201,23 C201,30.7319865 194.731986,37 187,37 C179.268014,37 173,30.7319865 173,23 C173,15.2680135 179.268014,9 187,9 C194.731986,9 201,15.2680135 201,23 Z M178,24 L186,24 L186,32 L188,32 L188,31.1411067 C188,29.1272092 188.278477,28.0472407 188.801398,27.0694629 C189.324319,26.0916851 190.091685,25.3243194 191.069463,24.8013981 C192.047241,24.2784768 193.127209,24 195.141107,24 L196,24 L196,22 L195.141107,22 C193.127209,22 192.047241,21.7215232 191.069463,21.1986019 C190.091685,20.6756806 189.324319,19.9083149 188.801398,18.9305371 C188.278477,17.9527593 188,16.8727908 188,14.8588933 L188,14 L186,14 L186,22 L178,22 L178,24 Z" id="icon-small-fw-orange"></path>
        </g>
    </g>
</svg>