<?xml version="1.0" encoding="UTF-8"?>
<svg width="125px" height="125px" viewBox="0 0 125 125" version="1.1" xmlns="http://www.w3.org/2000/svg" xmlns:xlink="http://www.w3.org/1999/xlink">
    <!-- Generator: Sketch 54.1 (76490) - https://sketchapp.com -->
    <title>icon-big-open-black</title>
    <desc>Created with Sketch.</desc>
    <g id="Page-1" stroke="none" stroke-width="1" fill="none" fill-rule="evenodd">
        <g id="Artboard" transform="translate(-26.000000, -174.000000)" fill="#000000">
            <path d="M151,236.5 C151,271.017797 123.017797,299 88.5,299 C53.9822031,299 26,271.017797 26,236.5 C26,201.982203 53.9822031,174 88.5,174 C123.017797,174 151,201.982203 151,236.5 Z M53,241.022998 C53.556043,241.007694 54.1351287,241 54.7392715,241 L60.2607285,241 C66.8964193,241 70.5091978,241.928256 73.768457,243.671327 C77.0277163,245.414398 79.585602,247.972284 81.328673,251.231543 C83.0717439,254.490802 84,258.103581 84,264.739272 L84,270.260728 C84,270.864871 83.9923056,271.443957 83.9770024,272 L93.0229976,272 C93.0076944,271.443957 93,270.864871 93,270.260728 L93,264.739272 C93,258.103581 93.9282561,254.490802 95.671327,251.231543 C97.414398,247.972284 99.9722837,245.414398 103.231543,243.671327 C106.490802,241.928256 110.103581,241 116.739272,241 L122.260728,241 C122.864871,241 123.443957,241.007694 124,241.022998 L124,231.977002 C123.443957,231.992306 122.864871,232 122.260728,232 L116.739272,232 C110.103581,232 106.490802,231.071744 103.231543,229.328673 C99.9722837,227.585602 97.414398,225.027716 95.671327,221.768457 C93.9282561,218.509198 93,214.896419 93,208.260728 L93,202.739272 C93,202.135129 93.0076944,201.556043 93.0229976,201 L83.9770024,201 C83.9923056,201.556043 84,202.135129 84,202.739272 L84,208.260728 C84,214.896419 83.0717439,218.509198 81.328673,221.768457 C79.585602,225.027716 77.0277163,227.585602 73.768457,229.328673 C70.5091978,231.071744 66.8964193,232 60.2607285,232 L54.7392715,232 C54.1351287,232 53.556043,231.992306 53,231.977002 L53,241.022998 Z" id="icon-big-open-black"></path>
        </g>
    </g>
</svg>