<?xml version="1.0" encoding="UTF-8"?>
<svg width="28px" height="28px" viewBox="0 0 28 28" version="1.1" xmlns="http://www.w3.org/2000/svg" xmlns:xlink="http://www.w3.org/1999/xlink">
    <!-- Generator: Sketch 54.1 (76490) - https://sketchapp.com -->
    <title>icon-small-download-orange</title>
    <desc>Created with Sketch.</desc>
    <g id="Page-1" stroke="none" stroke-width="1" fill="none" fill-rule="evenodd">
        <g id="Artboard" transform="translate(-181.000000, -115.000000)" fill="#FD4300">
            <path d="M209,129 C209,136.731986 202.731986,143 195,143 C187.268014,143 181,136.731986 181,129 C181,121.268014 187.268014,115 195,115 C202.731986,115 209,121.268014 209,129 Z M196,126 L196,120 L194,120 L194,126 L196,126 Z M196,128 L194,128 L186,128 L186,130 L186.858893,130 C188.872791,130 189.952759,130.278477 190.930537,130.801398 C191.908315,131.324319 192.675681,132.091685 193.198602,133.069463 C193.721523,134.047241 194,135.127209 194,137.141107 L194,138 L196,138 L196,137.141107 C196,135.127209 196.278477,134.047241 196.801398,133.069463 C197.324319,132.091685 198.091685,131.324319 199.069463,130.801398 C200.047241,130.278477 201.127209,130 203.141107,130 L204,130 L204,128 L196,128 Z" id="icon-small-download-orange"></path>
        </g>
    </g>
</svg>