<?xml version="1.0" encoding="UTF-8"?>
<svg width="28px" height="28px" viewBox="0 0 28 28" version="1.1" xmlns="http://www.w3.org/2000/svg" xmlns:xlink="http://www.w3.org/1999/xlink">
    <!-- Generator: Sketch 54.1 (76490) - https://sketchapp.com -->
    <title>icon-small-download-orange</title>
    <desc>Created with Sketch.</desc>
    <g id="Page-1" stroke="none" stroke-width="1" fill="none" fill-rule="evenodd">
        <g id="Artboard" transform="translate(-219.000000, -115.000000)" fill="#FFFFFF">
            <path d="M247,129 C247,136.731986 240.731986,143 233,143 C225.268014,143 219,136.731986 219,129 C219,121.268014 225.268014,115 233,115 C240.731986,115 247,121.268014 247,129 Z M234,126 L234,120 L232,120 L232,126 L234,126 Z M234,128 L232,128 L224,128 L224,130 L224.858893,130 C226.872791,130 227.952759,130.278477 228.930537,130.801398 C229.908315,131.324319 230.675681,132.091685 231.198602,133.069463 C231.721523,134.047241 232,135.127209 232,137.141107 L232,138 L234,138 L234,137.141107 C234,135.127209 234.278477,134.047241 234.801398,133.069463 C235.324319,132.091685 236.091685,131.324319 237.069463,130.801398 C238.047241,130.278477 239.127209,130 241.141107,130 L242,130 L242,128 L234,128 Z" id="icon-small-download-orange"></path>
        </g>
    </g>
</svg>