<?xml version="1.0" encoding="UTF-8"?>
<svg width="125px" height="125px" viewBox="0 0 125 125" version="1.1" xmlns="http://www.w3.org/2000/svg" xmlns:xlink="http://www.w3.org/1999/xlink">
    <!-- Generator: Sketch 54.1 (76490) - https://sketchapp.com -->
    <title>icon-big-fw-orange</title>
    <desc>Created with Sketch.</desc>
    <g id="Page-1" stroke="none" stroke-width="1" fill="none" fill-rule="evenodd">
        <g id="Artboard" transform="translate(-166.000000, -21.000000)" fill="#FD4300">
            <path d="M291,83.5 C291,118.017797 263.017797,146 228.5,146 C193.982203,146 166,118.017797 166,83.5 C166,48.9822031 193.982203,21 228.5,21 C263.017797,21 291,48.9822031 291,83.5 Z M193,88 L224,88 L224,119 L233.022998,119 C233.007694,118.443957 233,117.864871 233,117.260728 L233,111.739272 C233,105.103581 233.928256,101.490802 235.671327,98.231543 C237.414398,94.9722837 239.972284,92.414398 243.231543,90.671327 C246.490802,88.9282561 250.103581,88 256.739272,88 L262.260728,88 C262.864871,88 263.443957,88.0076944 264,88.0229976 L264,78.9770024 C263.443957,78.9923056 262.864871,79 262.260728,79 L256.739272,79 C250.103581,79 246.490802,78.0717439 243.231543,76.328673 C239.972284,74.585602 237.414398,72.0277163 235.671327,68.768457 C233.928256,65.5091978 233,61.8964193 233,55.2607285 L233,49.7392715 C233,49.1351287 233.007694,48.556043 233.022998,48 L224,48 L224,79 L193,79 L193,88 Z" id="icon-big-fw-orange"></path>
        </g>
    </g>
</svg>