<?xml version="1.0" encoding="UTF-8"?>
<svg width="28px" height="28px" viewBox="0 0 28 28" version="1.1" xmlns="http://www.w3.org/2000/svg" xmlns:xlink="http://www.w3.org/1999/xlink">
    <!-- Generator: Sketch 54.1 (76490) - https://sketchapp.com -->
    <title>icon-small-open-white</title>
    <desc>Created with Sketch.</desc>
    <g id="Page-1" stroke="none" stroke-width="1" fill="none" fill-rule="evenodd">
        <g id="Artboard" transform="translate(-134.000000, -9.000000)" fill="#FFFFFF">
            <path d="M162,23 C162,30.7319865 155.731986,37 148,37 C140.268014,37 134,30.7319865 134,23 C134,15.2680135 140.268014,9 148,9 C155.731986,9 162,15.2680135 162,23 Z M139,24 L141.87223,24 C143.655267,24 144.30184,24.1856512 144.953691,24.5342654 C145.605543,24.8828796 146.11712,25.3944567 146.465735,26.0463086 C146.814349,26.6981604 147,27.3447329 147,29.1277704 L147,32 L149,32 L149,29.1277704 C149,27.3447329 149.185651,26.6981604 149.534265,26.0463086 C149.88288,25.3944567 150.394457,24.8828796 151.046309,24.5342654 C151.69816,24.1856512 152.344733,24 154.12777,24 L157,24 L157,22 L154.12777,22 C152.344733,22 151.69816,21.8143488 151.046309,21.4657346 C150.394457,21.1171204 149.88288,20.6055433 149.534265,19.9536914 C149.185651,19.3018396 149,18.6552671 149,16.8722296 L149,14 L147,14 L147,16.8722296 C147,18.6552671 146.814349,19.3018396 146.465735,19.9536914 C146.11712,20.6055433 145.605543,21.1171204 144.953691,21.4657346 C144.30184,21.8143488 143.655267,22 141.87223,22 L139,22 L139,24 Z" id="icon-small-open-white"></path>
        </g>
    </g>
</svg>