<?xml version="1.0" encoding="UTF-8"?>
<svg width="125px" height="125px" viewBox="0 0 125 125" version="1.1" xmlns="http://www.w3.org/2000/svg" xmlns:xlink="http://www.w3.org/1999/xlink">
    <!-- Generator: Sketch 54.1 (76490) - https://sketchapp.com -->
    <title>icon-big-fw-black</title>
    <desc>Created with Sketch.</desc>
    <g id="Page-1" stroke="none" stroke-width="1" fill="none" fill-rule="evenodd">
        <g id="Artboard" transform="translate(-166.000000, -174.000000)" fill="#000000">
            <path d="M291,236.5 C291,271.017797 263.017797,299 228.5,299 C193.982203,299 166,271.017797 166,236.5 C166,201.982203 193.982203,174 228.5,174 C263.017797,174 291,201.982203 291,236.5 Z M193,241 L224,241 L224,272 L233.022998,272 C233.007694,271.443957 233,270.864871 233,270.260728 L233,264.739272 C233,258.103581 233.928256,254.490802 235.671327,251.231543 C237.414398,247.972284 239.972284,245.414398 243.231543,243.671327 C246.490802,241.928256 250.103581,241 256.739272,241 L262.260728,241 C262.864871,241 263.443957,241.007694 264,241.022998 L264,231.977002 C263.443957,231.992306 262.864871,232 262.260728,232 L256.739272,232 C250.103581,232 246.490802,231.071744 243.231543,229.328673 C239.972284,227.585602 237.414398,225.027716 235.671327,221.768457 C233.928256,218.509198 233,214.896419 233,208.260728 L233,202.739272 C233,202.135129 233.007694,201.556043 233.022998,201 L224,201 L224,232 L193,232 L193,241 Z" id="icon-big-fw-black"></path>
        </g>
    </g>
</svg>