<?xml version="1.0" encoding="UTF-8"?>
<svg width="28px" height="28px" viewBox="0 0 28 28" version="1.1" xmlns="http://www.w3.org/2000/svg" xmlns:xlink="http://www.w3.org/1999/xlink">
    <!-- Generator: Sketch 54.1 (76490) - https://sketchapp.com -->
    <title>Shape</title>
    <desc>Created with Sketch.</desc>
    <g id="Page-1" stroke="none" stroke-width="1" fill="none" fill-rule="evenodd">
        <g id="Artboard" transform="translate(-219.000000, -76.000000)" fill="#FFFFFF">
            <path d="M233,104 C225.268014,104 219,97.7319865 219,90 C219,82.2680135 225.268014,76 233,76 C240.731986,76 247,82.2680135 247,90 C247,97.7319865 240.731986,104 233,104 Z M233.842776,99.0160817 L233.860228,98.016234 C233.927699,94.1508295 237.115925,91.0719961 240.981329,91.1394669 L241.981177,91.1569194 L242.016082,89.157224 L234.0173,89.0176047 L234.156919,81.0188232 L232.157224,80.9839183 L232.017605,88.9826999 L224.018823,88.8430806 L223.983918,90.842776 L224.983766,90.8602284 C228.84917,90.9276993 231.928004,94.1159247 231.860533,97.9813292 L231.843081,98.9811768 L233.842776,99.0160817 Z" id="Shape"></path>
        </g>
    </g>
</svg>