<?xml version="1.0" encoding="UTF-8"?>
<svg width="85px" height="85px" viewBox="0 0 85 85" version="1.1" xmlns="http://www.w3.org/2000/svg" xmlns:xlink="http://www.w3.org/1999/xlink">
    <!-- Generator: Sketch 54.1 (76490) - https://sketchapp.com -->
    <title>Combined Shape</title>
    <desc>Created with Sketch.</desc>
    <g id="Page-1" stroke="none" stroke-width="1" fill="none" fill-rule="evenodd">
        <g id="Desktop-HD-Copy" transform="translate(-600.000000, -7081.000000)" fill="#FFFFFF">
            <g id="Group-5" transform="translate(0.000000, 6771.000000)">
                <g id="Group-8" transform="translate(600.000000, 310.000000)">
                    <path d="M85,42.5 C85,65.9721019 65.9721019,85 42.5,85 C19.0278981,85 3.97903932e-13,65.9721019 1.42108547e-14,42.5 C4.12114787e-13,19.0278981 19.0278981,3.13235324e-13 42.5,-7.10542736e-15 C65.9721019,3.27403494e-13 85,19.0278981 85,42.5 Z M33.32,39.44 L18.36,39.44 L18.36,45.56 L33.32,45.56 L33.32,39.44 Z M39.44,39.44 L39.44,45.56 L39.44,66.64 L45.5756384,66.64 C45.5652322,66.2618908 45.56,65.8681125 45.56,65.4572953 L45.56,61.7027047 C45.56,57.1904349 46.1912142,54.7337455 47.3765024,52.5174492 C48.5617906,50.3011529 50.3011529,48.5617906 52.5174492,47.3765024 C54.7337455,46.1912142 57.1904349,45.56 61.7027047,45.56 L65.4572953,45.56 C65.8681125,45.56 66.2618908,45.5652322 66.64,45.5756384 L66.64,39.4243616 C66.2618908,39.4347678 65.8681125,39.44 65.4572953,39.44 L61.7027047,39.44 C57.1904349,39.44 54.7337455,38.8087858 52.5174492,37.6234976 C50.3011529,36.4382094 48.5617906,34.6988471 47.3765024,32.4825508 C46.1912142,30.2662545 45.56,27.8095651 45.56,23.2972953 L45.56,19.5427047 C45.56,19.1318875 45.5652322,18.7381092 45.5756384,18.36 L39.44,18.36 L39.44,39.44 Z" id="Combined-Shape"></path>
                </g>
            </g>
        </g>
    </g>
</svg>