<?xml version="1.0" encoding="UTF-8"?>
<svg width="28px" height="28px" viewBox="0 0 28 28" version="1.1" xmlns="http://www.w3.org/2000/svg" xmlns:xlink="http://www.w3.org/1999/xlink">
    <!-- Generator: Sketch 54.1 (76490) - https://sketchapp.com -->
    <title>Shape</title>
    <desc>Created with Sketch.</desc>
    <g id="Page-1" stroke="none" stroke-width="1" fill="none" fill-rule="evenodd">
        <g id="Artboard" transform="translate(-181.000000, -76.000000)" fill="#FD4300">
            <path d="M195,104 C187.268014,104 181,97.7319865 181,90 C181,82.2680135 187.268014,76 195,76 C202.731986,76 209,82.2680135 209,90 C209,97.7319865 202.731986,104 195,104 Z M195.842776,99.0160817 L195.860228,98.016234 C195.927699,94.1508295 199.115925,91.0719961 202.981329,91.1394669 L203.981177,91.1569194 L204.016082,89.157224 L196.0173,89.0176047 L196.156919,81.0188232 L194.157224,80.9839183 L194.017605,88.9826999 L186.018823,88.8430806 L185.983918,90.842776 L186.983766,90.8602284 C190.84917,90.9276993 193.928004,94.1159247 193.860533,97.9813292 L193.843081,98.9811768 L195.842776,99.0160817 Z" id="Shape"></path>
        </g>
    </g>
</svg>