<?xml version="1.0" encoding="UTF-8"?>
<svg width="125px" height="125px" viewBox="0 0 125 125" version="1.1" xmlns="http://www.w3.org/2000/svg" xmlns:xlink="http://www.w3.org/1999/xlink">
    <!-- Generator: Sketch 54.1 (76490) - https://sketchapp.com -->
    <title>icon-big-open-orange</title>
    <desc>Created with Sketch.</desc>
    <g id="Page-1" stroke="none" stroke-width="1" fill="none" fill-rule="evenodd">
        <g id="Artboard" transform="translate(-26.000000, -21.000000)" fill="#FD4300">
            <path d="M151,83.5 C151,118.017797 123.017797,146 88.5,146 C53.9822031,146 26,118.017797 26,83.5 C26,48.9822031 53.9822031,21 88.5,21 C123.017797,21 151,48.9822031 151,83.5 Z M53,88.0229976 C53.556043,88.0076944 54.1351287,88 54.7392715,88 L60.2607285,88 C66.8964193,88 70.5091978,88.9282561 73.768457,90.671327 C77.0277163,92.414398 79.585602,94.9722837 81.328673,98.231543 C83.0717439,101.490802 84,105.103581 84,111.739272 L84,117.260728 C84,117.864871 83.9923056,118.443957 83.9770024,119 L93.0229976,119 C93.0076944,118.443957 93,117.864871 93,117.260728 L93,111.739272 C93,105.103581 93.9282561,101.490802 95.671327,98.231543 C97.414398,94.9722837 99.9722837,92.414398 103.231543,90.671327 C106.490802,88.9282561 110.103581,88 116.739272,88 L122.260728,88 C122.864871,88 123.443957,88.0076944 124,88.0229976 L124,78.9770024 C123.443957,78.9923056 122.864871,79 122.260728,79 L116.739272,79 C110.103581,79 106.490802,78.0717439 103.231543,76.328673 C99.9722837,74.585602 97.414398,72.0277163 95.671327,68.768457 C93.9282561,65.5091978 93,61.8964193 93,55.2607285 L93,49.7392715 C93,49.1351287 93.0076944,48.556043 93.0229976,48 L83.9770024,48 C83.9923056,48.556043 84,49.1351287 84,49.7392715 L84,55.2607285 C84,61.8964193 83.0717439,65.5091978 81.328673,68.768457 C79.585602,72.0277163 77.0277163,74.585602 73.768457,76.328673 C70.5091978,78.0717439 66.8964193,79 60.2607285,79 L54.7392715,79 C54.1351287,79 53.556043,78.9923056 53,78.9770024 L53,88.0229976 Z" id="icon-big-open-orange"></path>
        </g>
    </g>
</svg>