<?xml version="1.0" encoding="UTF-8"?>
<svg width="28px" height="28px" viewBox="0 0 28 28" version="1.1" xmlns="http://www.w3.org/2000/svg" xmlns:xlink="http://www.w3.org/1999/xlink">
    <!-- Generator: Sketch 54.1 (76490) - https://sketchapp.com -->
    <title>icon-small-close-white</title>
    <desc>Created with Sketch.</desc>
    <g id="Page-1" stroke="none" stroke-width="1" fill="none" fill-rule="evenodd">
        <g id="Artboard" transform="translate(-134.000000, -43.000000)" fill="#FFFFFF">
            <path d="M157.899495,66.8994949 C152.432155,72.366835 143.567845,72.366835 138.100505,66.8994949 C132.633165,61.4321549 132.633165,52.5678451 138.100505,47.1005051 C143.567845,41.633165 152.432155,41.633165 157.899495,47.1005051 C163.366835,52.5678451 163.366835,61.4321549 157.899495,66.8994949 Z M140.928932,51.3431458 L142.959905,53.3741188 C144.220703,54.6349167 144.546624,55.2233877 144.761045,55.930824 C144.975466,56.6382603 144.975466,57.3617397 144.761045,58.069176 C144.546624,58.7766123 144.220703,59.3650833 142.959905,60.6258812 L140.928932,62.6568542 L142.343146,64.0710678 L144.374119,62.0400948 C145.634917,60.7792969 146.223388,60.4533763 146.930824,60.2389549 C147.63826,60.0245335 148.36174,60.0245335 149.069176,60.2389549 C149.776612,60.4533763 150.365083,60.7792969 151.625881,62.0400948 L153.656854,64.0710678 L155.071068,62.6568542 L153.040095,60.6258812 C151.779297,59.3650833 151.453376,58.7766123 151.238955,58.069176 C151.024534,57.3617397 151.024534,56.6382603 151.238955,55.930824 C151.453376,55.2233877 151.779297,54.6349167 153.040095,53.3741188 L155.071068,51.3431458 L153.656854,49.9289322 L151.625881,51.9599052 C150.365083,53.2207031 149.776612,53.5466237 149.069176,53.7610451 C148.36174,53.9754665 147.63826,53.9754665 146.930824,53.7610451 C146.223388,53.5466237 145.634917,53.2207031 144.374119,51.9599052 L142.343146,49.9289322 L140.928932,51.3431458 Z" id="icon-small-close-white"></path>
        </g>
    </g>
</svg>