<?xml version="1.0" encoding="UTF-8"?>
<svg width="28px" height="28px" viewBox="0 0 28 28" version="1.1" xmlns="http://www.w3.org/2000/svg" xmlns:xlink="http://www.w3.org/1999/xlink">
    <!-- Generator: Sketch 54.1 (76490) - https://sketchapp.com -->
    <title>icon-small-open-orange</title>
    <desc>Created with Sketch.</desc>
    <g id="Page-1" stroke="none" stroke-width="1" fill="none" fill-rule="evenodd">
        <g id="Artboard" transform="translate(-42.000000, -9.000000)" fill="#FD4300">
            <path d="M70,23 C70,30.7319865 63.7319865,37 56,37 C48.2680135,37 42,30.7319865 42,23 C42,15.2680135 48.2680135,9 56,9 C63.7319865,9 70,15.2680135 70,23 Z M47,24 L49.8722296,24 C51.6552671,24 52.3018396,24.1856512 52.9536914,24.5342654 C53.6055433,24.8828796 54.1171204,25.3944567 54.4657346,26.0463086 C54.8143488,26.6981604 55,27.3447329 55,29.1277704 L55,32 L57,32 L57,29.1277704 C57,27.3447329 57.1856512,26.6981604 57.5342654,26.0463086 C57.8828796,25.3944567 58.3944567,24.8828796 59.0463086,24.5342654 C59.6981604,24.1856512 60.3447329,24 62.1277704,24 L65,24 L65,22 L62.1277704,22 C60.3447329,22 59.6981604,21.8143488 59.0463086,21.4657346 C58.3944567,21.1171204 57.8828796,20.6055433 57.5342654,19.9536914 C57.1856512,19.3018396 57,18.6552671 57,16.8722296 L57,14 L55,14 L55,16.8722296 C55,18.6552671 54.8143488,19.3018396 54.4657346,19.9536914 C54.1171204,20.6055433 53.6055433,21.1171204 52.9536914,21.4657346 C52.3018396,21.8143488 51.6552671,22 49.8722296,22 L47,22 L47,24 Z" id="icon-small-open-orange"></path>
        </g>
    </g>
</svg>