<?xml version="1.0" encoding="UTF-8"?>
<svg width="732px" height="350px" viewBox="0 0 732 350" version="1.1" xmlns="http://www.w3.org/2000/svg" xmlns:xlink="http://www.w3.org/1999/xlink">
    <!-- Generator: Sketch 54.1 (76490) - https://sketchapp.com -->
    <title>Shape</title>
    <desc>Created with Sketch.</desc>
    <g id="Page-1" stroke="none" stroke-width="1" fill="none" fill-rule="evenodd">
        <path d="M502.904779,156.955157 L548.235355,0.686315242 L556.087046,9.70873672 L508.13924,175 L556.087046,340.291263 L548.235355,349.313685 L502.904779,193.044843 L500.089472,202.750095 L500.089472,313 L491.089472,313 L491.089472,311.134024 L479.83999,349.840181 L471.963131,340.806196 L486.212613,291.777922 L491.089472,297.371201 L491.089472,233.775944 L478.379842,277.590064 L478.379842,314.786395 L469.53662,314.786395 L459.256248,349.840181 L451.307943,340.806196 L455.229671,327.433974 L448.398662,327.433974 L448.398662,178.072084 L457.576574,178.072084 L457.576574,319.431557 L465.686672,291.777922 L469.201929,295.773337 L469.201929,284.923589 L466.638187,281.977579 L469.201929,273.139546 L469.201929,178.072084 L478.379842,178.072084 L478.379842,241.500378 L491.089472,197.686258 L491.089472,177 L497.090157,177 L497.670318,175 L497.090157,173 L491.089472,173 L491.089472,152.313742 L478.379842,108.499622 L478.379842,171.927916 L469.201929,171.927916 L469.201929,76.860454 L466.638187,68.0224215 L469.201929,65.0764106 L469.201929,54.2266629 L465.686672,58.2220781 L457.576574,30.5684427 L457.576574,171.927916 L448.398662,171.927916 L448.398662,22.5660258 L455.229671,22.5660258 L451.307943,9.19380394 L459.256248,0.159818629 L469.53662,35.2136053 L478.379842,35.2136053 L478.379842,72.4099363 L491.089472,116.224056 L491.089472,52.6287985 L486.212613,58.2220781 L471.963131,9.19380394 L479.83999,0.159818629 L491.089472,38.8659758 L491.089472,37 L500.089472,37 L500.089472,147.249905 L502.904779,156.955157 Z M311.698059,156.655549 L311.698059,135.185206 L309.862477,137.267513 L300.072704,103.950608 L300.072704,116.579269 L311.698059,156.655549 Z M300.072704,152.668955 L300.072704,171.887616 L290.894791,171.887616 L290.894791,121.029786 L284.953316,100.547639 L284.953316,100.860565 L277.382387,100.860565 L265.829722,140.252588 L264.150048,138.343483 L264.150048,171.927916 L254.972136,171.927916 L254.972136,22.5660258 L261.803145,22.5660258 L257.881417,9.19380394 L265.829722,0.159818629 L277.346497,39.4294651 L284.953316,39.4294651 L284.953316,64.4579529 L290.894791,84.9401006 L290.894791,22.8123055 L300.072704,22.8123055 L300.072704,83.1275425 L303.432053,79.316657 L311.698059,107.447825 L311.698059,35.4356181 L320.875971,35.4356181 L320.875971,125.615597 L341.171749,55.6496296 L339.136854,57.9879377 L324.932903,9.02242148 L332.784594,2.27373675e-12 L345.049613,42.2814028 L357.115546,0.686315242 L364.967237,9.70873672 L320.875971,161.705283 L320.875971,171.887616 L317.922273,171.887616 L317.019431,175 L317.922273,178.112384 L320.875971,178.112384 L320.875971,188.294717 L364.967237,340.291263 L357.115546,349.313685 L345.049613,307.718597 L332.784594,350 L324.932903,340.977579 L339.136854,292.012062 L341.171749,294.35037 L320.875971,224.384403 L320.875971,314.564382 L311.698059,314.564382 L311.698059,242.552175 L303.432053,270.683343 L300.072704,266.872457 L300.072704,327.187695 L290.894791,327.187695 L290.894791,265.059899 L284.953316,285.542047 L284.953316,310.570535 L277.346497,310.570535 L265.829722,349.840181 L257.881417,340.806196 L261.803145,327.433974 L254.972136,327.433974 L254.972136,178.072084 L264.150048,178.072084 L264.150048,211.656517 L265.829722,209.747412 L277.382387,249.139435 L284.953316,249.139435 L284.953316,249.452361 L290.894791,228.970214 L290.894791,178.112384 L300.072704,178.112384 L300.072704,197.331045 L306.550509,175 L300.072704,152.668955 Z M311.698059,193.344451 L300.072704,233.420731 L300.072704,246.049392 L309.862477,212.732487 L311.698059,214.814794 L311.698059,193.344451 Z M275.775403,282.272928 L275.518378,281.977579 L275.775403,281.091529 L275.775403,263.814256 L272.260146,267.809671 L264.150048,240.156036 L264.150048,319.431557 L272.260146,291.777922 L275.775403,295.773337 L275.775403,282.272928 Z M217.590385,156.924256 L219.490521,150.369805 L219.490521,22.5660258 L226.313943,22.5660258 L222.396571,9.19380394 L230.336048,0.159818629 L240.605002,35.2136053 L249.438401,35.2136053 L249.438401,171.927916 L240.270682,171.927916 L240.270682,135.15495 L238.437139,137.24126 L228.658239,103.860307 L228.658239,171.927916 L223.721142,171.927916 L222.830544,175 L223.721142,178.072084 L228.658239,178.072084 L228.658239,246.139693 L238.437139,212.75874 L240.270682,214.84505 L240.270682,178.072084 L249.438401,178.072084 L249.438401,314.786395 L240.605002,314.786395 L230.336048,349.840181 L222.396571,340.806196 L226.313943,327.433974 L219.490521,327.433974 L219.490521,199.630195 L217.590385,193.075744 L210.083735,218.969666 L212.312587,218.969666 L212.312587,310.553434 L204.790052,310.553434 L193.400881,349.839975 L185.540642,340.802103 L189.418918,327.424128 L182.663595,327.424128 L182.663595,177.997981 L191.739817,177.997981 L191.739817,246.094873 L212.350226,175 L191.739817,103.905127 L191.739817,172.002019 L182.663595,172.002019 L182.663595,22.5758717 L189.418918,22.5758717 L185.540642,9.19789692 L193.400881,0.160025083 L204.790052,39.4465658 L212.312587,39.4465658 L212.312587,131.030334 L210.083735,131.030334 L217.590385,156.924256 Z M275.775403,68.9084705 L275.518378,68.0224215 L275.775403,67.7270718 L275.775403,54.2266629 L272.260146,58.2220781 L264.150048,30.5684427 L264.150048,109.843964 L272.260146,82.1903289 L275.775403,86.1857441 L275.775403,68.9084705 Z M107.755222,156.924256 L110.494754,147.474338 L111.599343,148.744418 L111.599343,22.5660258 L118.422766,22.5660258 L114.505393,9.19380394 L122.44487,0.159818629 L132.713824,35.2136053 L141.547223,35.2136053 L141.547223,171.927916 L132.379505,171.927916 L132.379505,135.15495 L130.545961,137.24126 L120.767061,103.860307 L120.767061,171.927916 L113.885979,171.927916 L112.995381,175 L113.885979,178.072084 L120.767061,178.072084 L120.767061,246.139693 L130.545961,212.75874 L132.379505,214.84505 L132.379505,178.072084 L141.547223,178.072084 L141.547223,314.786395 L132.713824,314.786395 L122.44487,349.840181 L114.505393,340.806196 L118.422766,327.433974 L111.599343,327.433974 L111.599343,201.255582 L110.494754,202.525662 L107.755222,193.075744 L100.248572,218.969666 L102.477424,218.969666 L102.477424,310.553434 L94.9548888,310.553434 L83.5657179,349.839975 L75.7054789,340.802103 L79.5837547,327.424128 L72.8284317,327.424128 L72.8284317,177.997981 L81.9046539,177.997981 L81.9046539,246.094873 L102.515063,175 L81.9046539,103.905127 L81.9046539,172.002019 L72.8284317,172.002019 L72.8284317,22.5758717 L79.5837547,22.5758717 L75.7054789,9.19789692 L83.5657179,0.160025083 L94.9548888,39.4465658 L102.477424,39.4465658 L102.477424,131.030334 L100.248572,131.030334 L107.755222,156.924256 Z M397.800806,175 L409.24648,213.898527 L401.288959,222.913166 L391.487834,189.603698 L391.487834,319.497704 L399.607337,291.903287 L407.564858,300.917927 L393.169456,349.841209 L385.211935,340.82657 L389.13821,327.482984 L382.29928,327.482984 L382.29928,178.440945 L388.203257,178.440945 L387.78522,177.020232 L386.893557,176.010116 L387.190778,175 L386.893557,173.989884 L387.78522,172.979768 L388.203257,171.559055 L382.29928,171.559055 L382.29928,22.5170162 L389.13821,22.5170162 L385.211935,9.17343039 L393.169456,0.158790968 L407.564858,49.0820733 L399.607337,58.0967127 L391.487834,30.5022963 L391.487834,160.396302 L401.288959,127.086834 L409.24648,136.101473 L397.800806,175 Z M162.057452,175 L167.371238,193.100134 L167.371238,179.041921 L176.538956,179.041921 L176.538956,266.183436 L167.371238,266.183436 L167.371238,220.831325 L165.537694,222.913166 L155.758795,189.603698 L155.758795,319.497704 L163.859885,291.903287 L171.799362,300.917927 L157.436604,349.841209 L149.497127,340.82657 L153.414499,327.482984 L146.591076,327.482984 L146.591076,178.440945 L152.481666,178.440945 L152.064576,177.020232 L151.174936,176.010116 L151.471483,175 L151.174936,173.989884 L152.064576,172.979768 L152.481666,171.559055 L146.591076,171.559055 L146.591076,22.5170162 L153.414499,22.5170162 L149.497127,9.17343039 L157.436604,0.158790968 L171.799362,49.0820733 L163.859885,58.0967127 L155.758795,30.5022963 L155.758795,160.396302 L165.537694,127.086834 L167.371238,129.168675 L167.371238,83.8165643 L176.538956,83.8165643 L176.538956,170.958079 L167.371238,170.958079 L167.371238,156.899866 L162.057452,175 Z M435.886341,172.144642 L435.050919,175 L435.886341,177.855358 L441.406938,177.855358 L441.406938,314.741686 L432.573539,314.741686 L422.304632,349.839415 L414.365108,340.794009 L418.282417,327.405178 L411.459058,327.405178 L411.459058,177.855358 L420.626776,177.855358 L420.626776,188.118358 L424.46495,175 L420.626776,161.881642 L420.626776,172.144642 L411.459058,172.144642 L411.459058,22.5948216 L418.282417,22.5948216 L414.365108,9.20599121 L422.304632,0.160585219 L432.573539,35.2583145 L441.406938,35.2583145 L441.406938,172.144642 L435.886341,172.144642 L435.886341,172.144642 Z M432.23922,193.215661 L430.405676,195.304596 L429.757935,193.090704 L423.982394,212.830719 L420.626776,209.007703 L420.626776,319.392477 L428.72782,291.704209 L432.23922,295.704705 L432.23922,193.215661 L432.23922,193.215661 Z M429.757935,156.909296 L430.405676,154.695404 L432.23922,156.784339 L432.23922,54.295295 L428.72782,58.295791 L420.626776,30.607523 L420.626776,140.992297 L423.982394,137.169281 L429.757935,156.909296 L429.757935,156.909296 Z M691.656087,148.890952 L698.284297,156.51221 L692.924685,175 L698.284297,193.48779 L691.656087,201.109048 L732.030163,340.291263 L724.178471,349.313685 L712.112539,307.718597 L699.84752,350 L691.995829,340.977579 L706.19978,292.012062 L708.234674,294.35037 L683.272067,208.296363 L680.177876,218.969666 L682.406728,218.969666 L682.406728,310.553434 L674.884192,310.553434 L663.495022,349.839975 L655.634783,340.802103 L659.513058,327.424128 L652.757735,327.424128 L652.757735,282.985882 L650.432994,291 L647.119093,287.191978 L647.119093,314.786395 L638.285694,314.786395 L628.016741,349.840181 L620.077264,340.806196 L623.994636,327.433974 L617.171213,327.433974 L617.171213,304.35892 L603.922856,349.840181 L596.028256,340.806196 L610.274184,291.900299 L603.166121,291.900299 L603.166121,178.072084 L612.28202,178.072084 L612.28202,291.900299 L610.416774,291.900299 L617.171213,299.62957 L617.171213,178.072084 L626.338932,178.072084 L626.338932,246.139693 L636.117831,212.75874 L637.951375,214.84505 L637.951375,178.072084 L647.119093,178.072084 L647.119093,266.334381 L652.757735,246.896197 L652.757735,177.997981 L661.833958,177.997981 L661.833958,215.607586 L673.613435,175 L661.833958,134.392414 L661.833958,172.002019 L652.757735,172.002019 L652.757735,103.103803 L647.119093,83.6656195 L647.119093,171.927916 L637.951375,171.927916 L637.951375,135.15495 L636.117831,137.24126 L626.338932,103.860307 L626.338932,171.927916 L617.171213,171.927916 L617.171213,50.3704304 L610.416774,58.0997014 L612.28202,58.0997014 L612.28202,171.927916 L603.166121,171.927916 L603.166121,58.0997014 L610.274184,58.0997014 L596.028256,9.19380394 L603.922856,0.159818629 L617.171213,45.6410802 L617.171213,22.5660258 L623.994636,22.5660258 L620.077264,9.19380394 L628.016741,0.159818629 L638.285694,35.2136053 L647.119093,35.2136053 L647.119093,62.8080221 L650.432994,59 L652.757735,67.0141175 L652.757735,22.5758717 L659.513058,22.5758717 L655.634783,9.19789692 L663.495022,0.160025083 L674.884192,39.4465658 L682.406728,39.4465658 L682.406728,131.030334 L680.177876,131.030334 L683.272067,141.703637 L708.234674,55.6496296 L706.19978,57.9879377 L691.995829,9.02242148 L699.84752,0 L712.112539,42.2814028 L724.178471,0.686315242 L732.030163,9.70873672 L691.656087,148.890952 L691.656087,148.890952 Z M571.977484,172.36903 L568.089472,172.36903 L568.089472,22.6246354 L574.920482,22.6246354 L570.998754,9.21816826 L578.947059,0.161047589 L590.640463,40.1350687 L598.070652,40.1350687 L598.070652,154.254789 L589.413344,154.254789 L583.344849,175 L589.413344,195.745211 L598.070652,195.745211 L598.070652,309.864931 L590.640463,309.864931 L578.947059,349.838952 L570.998754,340.781832 L574.920482,327.375365 L568.089472,327.375365 L568.089472,177.63097 L571.977484,177.63097 L572.747109,175 L571.977484,172.36903 L571.977484,172.36903 Z M361.119295,175 L372.31556,213.599811 L364.454022,222.634189 L351.447219,177.792436 L350.232257,176.396218 L350.637245,175 L350.232257,173.603782 L351.447219,172.207564 L364.454022,127.365811 L372.31556,136.400189 L361.119295,175 Z M191.739817,83.033056 L195.061945,79.2132019 L203.236365,107.410574 L203.236365,54.2501295 L199.760057,58.2472637 L191.739817,30.5817313 L191.739817,83.033056 Z M81.9046539,83.033056 L85.2267818,79.2132019 L93.4012021,107.410574 L93.4012021,54.2501295 L89.9248937,58.2472637 L81.9046539,30.5817313 L81.9046539,83.033056 Z M228.658239,82.9972119 L232.013857,79.1790004 L240.270682,107.364247 L240.270682,54.2266629 L236.75933,58.2220781 L228.658239,30.5684427 L228.658239,82.9972119 L228.658239,82.9972119 Z M120.767061,82.9972119 L124.122679,79.1790004 L132.379505,107.364247 L132.379505,54.2266629 L128.868152,58.2220781 L120.767061,30.5684427 L120.767061,82.9972119 Z M46.409628,103.860307 L46.409628,171.927916 L37.2419097,171.927916 L37.2419097,52.308682 L32.1142578,58.2220781 L24.1212075,30.5684427 L24.1212075,171.927916 L15.0757547,171.927916 L15.0757547,33.2886723 L7.83359193,58.3444549 L4.54747351e-13,49.3104696 L14.1712094,0.28219539 L19.9208669,6.91291111 L25.7766403,0.159818629 L37.2419097,39.8263254 L37.2419097,22.5660258 L44.0653321,22.5660258 L40.14796,9.19380394 L48.087437,0.159818629 L58.3563907,35.2136053 L67.1897896,35.2136053 L67.1897896,171.927916 L58.0220713,171.927916 L58.0220713,135.15495 L56.1885276,137.24126 L46.409628,103.860307 Z M46.409628,82.9972119 L49.7652459,79.1790004 L58.0220713,107.364247 L58.0220713,54.2266629 L54.5107187,58.2220781 L46.409628,30.5684427 L46.409628,82.9972119 L46.409628,82.9972119 Z M18.1750453,22.5660258 L21.8081764,22.5660258 L19.9916108,16.2812359 L18.1750453,22.5660258 Z M661.833958,83.033056 L665.156085,79.2132019 L673.330506,107.410574 L673.330506,54.2501295 L669.854197,58.2472637 L661.833958,30.5817313 L661.833958,83.033056 Z M626.338932,82.9972119 L629.694549,79.1790004 L637.951375,107.364247 L637.951375,54.2266629 L634.440022,58.2220781 L626.338932,30.5684427 L626.338932,82.9972119 Z M577.267385,159.547391 L585.527506,131.310083 L588.89274,135.14478 L588.89274,54.366353 L585.377483,58.3720002 L577.267385,30.6475459 L577.267385,159.547391 Z M191.739817,266.966944 L191.739817,319.418269 L199.760057,291.752736 L203.236365,295.74987 L203.236365,242.589426 L195.061945,270.786798 L191.739817,266.966944 Z M81.9046539,266.966944 L81.9046539,319.418269 L89.9248937,291.752736 L93.4012021,295.74987 L93.4012021,242.589426 L85.2267818,270.786798 L81.9046539,266.966944 Z M228.658239,267.002788 L228.658239,319.431557 L236.75933,291.777922 L240.270682,295.773337 L240.270682,242.635753 L232.013857,270.821 L228.658239,267.002788 L228.658239,267.002788 Z M120.767061,267.002788 L120.767061,319.431557 L128.868152,291.777922 L132.379505,295.773337 L132.379505,242.635753 L124.122679,270.821 L120.767061,267.002788 Z M46.409628,246.139693 L56.1885276,212.75874 L58.0220713,214.84505 L58.0220713,178.072084 L67.1897896,178.072084 L67.1897896,314.786395 L58.3563907,314.786395 L48.087437,349.840181 L40.14796,340.806196 L44.0653321,327.433974 L37.2419097,327.433974 L37.2419097,310.173675 L25.7766403,349.840181 L19.9208669,343.087089 L14.1712094,349.717805 L4.54747351e-13,300.68953 L7.83359193,291.655545 L15.0757547,316.711328 L15.0757547,178.072084 L24.1212075,178.072084 L24.1212075,319.431557 L32.1142578,291.777922 L37.2419097,297.691318 L37.2419097,178.072084 L46.409628,178.072084 L46.409628,246.139693 Z M46.409628,267.002788 L46.409628,319.431557 L54.5107187,291.777922 L58.0220713,295.773337 L58.0220713,242.635753 L49.7652459,270.821 L46.409628,267.002788 Z M18.1750453,327.433974 L19.9916108,333.718764 L21.8081764,327.433974 L18.1750453,327.433974 Z M661.833958,266.966944 L661.833958,319.418269 L669.854197,291.752736 L673.330506,295.74987 L673.330506,242.589426 L665.156085,270.786798 L661.833958,266.966944 Z M626.338932,267.002788 L626.338932,319.431557 L634.440022,291.777922 L637.951375,295.773337 L637.951375,242.635753 L629.694549,270.821 L626.338932,267.002788 Z M577.267385,190.452609 L577.267385,319.352454 L585.377483,291.628 L588.89274,295.633647 L588.89274,214.85522 L585.527506,218.689917 L577.267385,190.452609 Z" id="Shape" fill="#000000"></path>
    </g>
</svg>